%TF.GenerationSoftware,KiCad,Pcbnew,8.0.9*%
%TF.CreationDate,2025-03-06T03:58:24+03:00*%
%TF.ProjectId,dmx_led_controller,646d785f-6c65-4645-9f63-6f6e74726f6c,rev?*%
%TF.SameCoordinates,Original*%
%TF.FileFunction,Legend,Top*%
%TF.FilePolarity,Positive*%
%FSLAX46Y46*%
G04 Gerber Fmt 4.6, Leading zero omitted, Abs format (unit mm)*
G04 Created by KiCad (PCBNEW 8.0.9) date 2025-03-06 03:58:24*
%MOMM*%
%LPD*%
G01*
G04 APERTURE LIST*
%ADD10C,0.150000*%
%ADD11C,0.100000*%
%ADD12C,0.120000*%
G04 APERTURE END LIST*
D10*
X149904761Y-88511307D02*
X149809523Y-88463688D01*
X149809523Y-88463688D02*
X149714285Y-88368450D01*
X149714285Y-88368450D02*
X149571428Y-88225592D01*
X149571428Y-88225592D02*
X149476190Y-88177973D01*
X149476190Y-88177973D02*
X149380952Y-88177973D01*
X149428571Y-88416069D02*
X149333333Y-88368450D01*
X149333333Y-88368450D02*
X149238095Y-88273211D01*
X149238095Y-88273211D02*
X149190476Y-88082735D01*
X149190476Y-88082735D02*
X149190476Y-87749402D01*
X149190476Y-87749402D02*
X149238095Y-87558926D01*
X149238095Y-87558926D02*
X149333333Y-87463688D01*
X149333333Y-87463688D02*
X149428571Y-87416069D01*
X149428571Y-87416069D02*
X149619047Y-87416069D01*
X149619047Y-87416069D02*
X149714285Y-87463688D01*
X149714285Y-87463688D02*
X149809523Y-87558926D01*
X149809523Y-87558926D02*
X149857142Y-87749402D01*
X149857142Y-87749402D02*
X149857142Y-88082735D01*
X149857142Y-88082735D02*
X149809523Y-88273211D01*
X149809523Y-88273211D02*
X149714285Y-88368450D01*
X149714285Y-88368450D02*
X149619047Y-88416069D01*
X149619047Y-88416069D02*
X149428571Y-88416069D01*
X150809523Y-88416069D02*
X150238095Y-88416069D01*
X150523809Y-88416069D02*
X150523809Y-87416069D01*
X150523809Y-87416069D02*
X150428571Y-87558926D01*
X150428571Y-87558926D02*
X150333333Y-87654164D01*
X150333333Y-87654164D02*
X150238095Y-87701783D01*
X146748095Y-97056069D02*
X146748095Y-97865592D01*
X146748095Y-97865592D02*
X146795714Y-97960830D01*
X146795714Y-97960830D02*
X146843333Y-98008450D01*
X146843333Y-98008450D02*
X146938571Y-98056069D01*
X146938571Y-98056069D02*
X147129047Y-98056069D01*
X147129047Y-98056069D02*
X147224285Y-98008450D01*
X147224285Y-98008450D02*
X147271904Y-97960830D01*
X147271904Y-97960830D02*
X147319523Y-97865592D01*
X147319523Y-97865592D02*
X147319523Y-97056069D01*
X148319523Y-98056069D02*
X147748095Y-98056069D01*
X148033809Y-98056069D02*
X148033809Y-97056069D01*
X148033809Y-97056069D02*
X147938571Y-97198926D01*
X147938571Y-97198926D02*
X147843333Y-97294164D01*
X147843333Y-97294164D02*
X147748095Y-97341783D01*
X142104819Y-108897916D02*
X141628628Y-109231249D01*
X142104819Y-109469344D02*
X141104819Y-109469344D01*
X141104819Y-109469344D02*
X141104819Y-109088392D01*
X141104819Y-109088392D02*
X141152438Y-108993154D01*
X141152438Y-108993154D02*
X141200057Y-108945535D01*
X141200057Y-108945535D02*
X141295295Y-108897916D01*
X141295295Y-108897916D02*
X141438152Y-108897916D01*
X141438152Y-108897916D02*
X141533390Y-108945535D01*
X141533390Y-108945535D02*
X141581009Y-108993154D01*
X141581009Y-108993154D02*
X141628628Y-109088392D01*
X141628628Y-109088392D02*
X141628628Y-109469344D01*
X141104819Y-108040773D02*
X141104819Y-108231249D01*
X141104819Y-108231249D02*
X141152438Y-108326487D01*
X141152438Y-108326487D02*
X141200057Y-108374106D01*
X141200057Y-108374106D02*
X141342914Y-108469344D01*
X141342914Y-108469344D02*
X141533390Y-108516963D01*
X141533390Y-108516963D02*
X141914342Y-108516963D01*
X141914342Y-108516963D02*
X142009580Y-108469344D01*
X142009580Y-108469344D02*
X142057200Y-108421725D01*
X142057200Y-108421725D02*
X142104819Y-108326487D01*
X142104819Y-108326487D02*
X142104819Y-108136011D01*
X142104819Y-108136011D02*
X142057200Y-108040773D01*
X142057200Y-108040773D02*
X142009580Y-107993154D01*
X142009580Y-107993154D02*
X141914342Y-107945535D01*
X141914342Y-107945535D02*
X141676247Y-107945535D01*
X141676247Y-107945535D02*
X141581009Y-107993154D01*
X141581009Y-107993154D02*
X141533390Y-108040773D01*
X141533390Y-108040773D02*
X141485771Y-108136011D01*
X141485771Y-108136011D02*
X141485771Y-108326487D01*
X141485771Y-108326487D02*
X141533390Y-108421725D01*
X141533390Y-108421725D02*
X141581009Y-108469344D01*
X141581009Y-108469344D02*
X141676247Y-108516963D01*
X143333333Y-94536069D02*
X143000000Y-94059878D01*
X142761905Y-94536069D02*
X142761905Y-93536069D01*
X142761905Y-93536069D02*
X143142857Y-93536069D01*
X143142857Y-93536069D02*
X143238095Y-93583688D01*
X143238095Y-93583688D02*
X143285714Y-93631307D01*
X143285714Y-93631307D02*
X143333333Y-93726545D01*
X143333333Y-93726545D02*
X143333333Y-93869402D01*
X143333333Y-93869402D02*
X143285714Y-93964640D01*
X143285714Y-93964640D02*
X143238095Y-94012259D01*
X143238095Y-94012259D02*
X143142857Y-94059878D01*
X143142857Y-94059878D02*
X142761905Y-94059878D01*
X144190476Y-93869402D02*
X144190476Y-94536069D01*
X143952381Y-93488450D02*
X143714286Y-94202735D01*
X143714286Y-94202735D02*
X144333333Y-94202735D01*
X153054819Y-104493154D02*
X153864342Y-104493154D01*
X153864342Y-104493154D02*
X153959580Y-104445535D01*
X153959580Y-104445535D02*
X154007200Y-104397916D01*
X154007200Y-104397916D02*
X154054819Y-104302678D01*
X154054819Y-104302678D02*
X154054819Y-104112202D01*
X154054819Y-104112202D02*
X154007200Y-104016964D01*
X154007200Y-104016964D02*
X153959580Y-103969345D01*
X153959580Y-103969345D02*
X153864342Y-103921726D01*
X153864342Y-103921726D02*
X153054819Y-103921726D01*
X153054819Y-103540773D02*
X153054819Y-102921726D01*
X153054819Y-102921726D02*
X153435771Y-103255059D01*
X153435771Y-103255059D02*
X153435771Y-103112202D01*
X153435771Y-103112202D02*
X153483390Y-103016964D01*
X153483390Y-103016964D02*
X153531009Y-102969345D01*
X153531009Y-102969345D02*
X153626247Y-102921726D01*
X153626247Y-102921726D02*
X153864342Y-102921726D01*
X153864342Y-102921726D02*
X153959580Y-102969345D01*
X153959580Y-102969345D02*
X154007200Y-103016964D01*
X154007200Y-103016964D02*
X154054819Y-103112202D01*
X154054819Y-103112202D02*
X154054819Y-103397916D01*
X154054819Y-103397916D02*
X154007200Y-103493154D01*
X154007200Y-103493154D02*
X153959580Y-103540773D01*
X146748095Y-111236069D02*
X146748095Y-112045592D01*
X146748095Y-112045592D02*
X146795714Y-112140830D01*
X146795714Y-112140830D02*
X146843333Y-112188450D01*
X146843333Y-112188450D02*
X146938571Y-112236069D01*
X146938571Y-112236069D02*
X147129047Y-112236069D01*
X147129047Y-112236069D02*
X147224285Y-112188450D01*
X147224285Y-112188450D02*
X147271904Y-112140830D01*
X147271904Y-112140830D02*
X147319523Y-112045592D01*
X147319523Y-112045592D02*
X147319523Y-111236069D01*
X148224285Y-111569402D02*
X148224285Y-112236069D01*
X147986190Y-111188450D02*
X147748095Y-111902735D01*
X147748095Y-111902735D02*
X148367142Y-111902735D01*
D11*
X149380952Y-83588669D02*
X148904762Y-83588669D01*
X148904762Y-83588669D02*
X148904762Y-82588669D01*
X149714286Y-83064859D02*
X150047619Y-83064859D01*
X150190476Y-83588669D02*
X149714286Y-83588669D01*
X149714286Y-83588669D02*
X149714286Y-82588669D01*
X149714286Y-82588669D02*
X150190476Y-82588669D01*
X150619048Y-83588669D02*
X150619048Y-82588669D01*
X150619048Y-82588669D02*
X150857143Y-82588669D01*
X150857143Y-82588669D02*
X151000000Y-82636288D01*
X151000000Y-82636288D02*
X151095238Y-82731526D01*
X151095238Y-82731526D02*
X151142857Y-82826764D01*
X151142857Y-82826764D02*
X151190476Y-83017240D01*
X151190476Y-83017240D02*
X151190476Y-83160097D01*
X151190476Y-83160097D02*
X151142857Y-83350573D01*
X151142857Y-83350573D02*
X151095238Y-83445811D01*
X151095238Y-83445811D02*
X151000000Y-83541050D01*
X151000000Y-83541050D02*
X150857143Y-83588669D01*
X150857143Y-83588669D02*
X150619048Y-83588669D01*
X151380953Y-83683907D02*
X152142857Y-83683907D01*
X152857143Y-83588669D02*
X152380953Y-83588669D01*
X152380953Y-83588669D02*
X152380953Y-82588669D01*
X153190477Y-83588669D02*
X153190477Y-82588669D01*
X153666667Y-83588669D02*
X153666667Y-82588669D01*
X153666667Y-82588669D02*
X154238095Y-83588669D01*
X154238095Y-83588669D02*
X154238095Y-82588669D01*
X154714286Y-83064859D02*
X155047619Y-83064859D01*
X155190476Y-83588669D02*
X154714286Y-83588669D01*
X154714286Y-83588669D02*
X154714286Y-82588669D01*
X154714286Y-82588669D02*
X155190476Y-82588669D01*
X156142857Y-83588669D02*
X155571429Y-83588669D01*
X155857143Y-83588669D02*
X155857143Y-82588669D01*
X155857143Y-82588669D02*
X155761905Y-82731526D01*
X155761905Y-82731526D02*
X155666667Y-82826764D01*
X155666667Y-82826764D02*
X155571429Y-82874383D01*
X155690476Y-123588669D02*
X156023809Y-124588669D01*
X156023809Y-124588669D02*
X156357142Y-123588669D01*
X157261904Y-124493430D02*
X157214285Y-124541050D01*
X157214285Y-124541050D02*
X157071428Y-124588669D01*
X157071428Y-124588669D02*
X156976190Y-124588669D01*
X156976190Y-124588669D02*
X156833333Y-124541050D01*
X156833333Y-124541050D02*
X156738095Y-124445811D01*
X156738095Y-124445811D02*
X156690476Y-124350573D01*
X156690476Y-124350573D02*
X156642857Y-124160097D01*
X156642857Y-124160097D02*
X156642857Y-124017240D01*
X156642857Y-124017240D02*
X156690476Y-123826764D01*
X156690476Y-123826764D02*
X156738095Y-123731526D01*
X156738095Y-123731526D02*
X156833333Y-123636288D01*
X156833333Y-123636288D02*
X156976190Y-123588669D01*
X156976190Y-123588669D02*
X157071428Y-123588669D01*
X157071428Y-123588669D02*
X157214285Y-123636288D01*
X157214285Y-123636288D02*
X157261904Y-123683907D01*
X158261904Y-124493430D02*
X158214285Y-124541050D01*
X158214285Y-124541050D02*
X158071428Y-124588669D01*
X158071428Y-124588669D02*
X157976190Y-124588669D01*
X157976190Y-124588669D02*
X157833333Y-124541050D01*
X157833333Y-124541050D02*
X157738095Y-124445811D01*
X157738095Y-124445811D02*
X157690476Y-124350573D01*
X157690476Y-124350573D02*
X157642857Y-124160097D01*
X157642857Y-124160097D02*
X157642857Y-124017240D01*
X157642857Y-124017240D02*
X157690476Y-123826764D01*
X157690476Y-123826764D02*
X157738095Y-123731526D01*
X157738095Y-123731526D02*
X157833333Y-123636288D01*
X157833333Y-123636288D02*
X157976190Y-123588669D01*
X157976190Y-123588669D02*
X158071428Y-123588669D01*
X158071428Y-123588669D02*
X158214285Y-123636288D01*
X158214285Y-123636288D02*
X158261904Y-123683907D01*
X158642857Y-123683907D02*
X158690476Y-123636288D01*
X158690476Y-123636288D02*
X158785714Y-123588669D01*
X158785714Y-123588669D02*
X159023809Y-123588669D01*
X159023809Y-123588669D02*
X159119047Y-123636288D01*
X159119047Y-123636288D02*
X159166666Y-123683907D01*
X159166666Y-123683907D02*
X159214285Y-123779145D01*
X159214285Y-123779145D02*
X159214285Y-123874383D01*
X159214285Y-123874383D02*
X159166666Y-124017240D01*
X159166666Y-124017240D02*
X158595238Y-124588669D01*
X158595238Y-124588669D02*
X159214285Y-124588669D01*
D10*
X146333333Y-88336069D02*
X146000000Y-87859878D01*
X145761905Y-88336069D02*
X145761905Y-87336069D01*
X145761905Y-87336069D02*
X146142857Y-87336069D01*
X146142857Y-87336069D02*
X146238095Y-87383688D01*
X146238095Y-87383688D02*
X146285714Y-87431307D01*
X146285714Y-87431307D02*
X146333333Y-87526545D01*
X146333333Y-87526545D02*
X146333333Y-87669402D01*
X146333333Y-87669402D02*
X146285714Y-87764640D01*
X146285714Y-87764640D02*
X146238095Y-87812259D01*
X146238095Y-87812259D02*
X146142857Y-87859878D01*
X146142857Y-87859878D02*
X145761905Y-87859878D01*
X147238095Y-87336069D02*
X146761905Y-87336069D01*
X146761905Y-87336069D02*
X146714286Y-87812259D01*
X146714286Y-87812259D02*
X146761905Y-87764640D01*
X146761905Y-87764640D02*
X146857143Y-87717021D01*
X146857143Y-87717021D02*
X147095238Y-87717021D01*
X147095238Y-87717021D02*
X147190476Y-87764640D01*
X147190476Y-87764640D02*
X147238095Y-87812259D01*
X147238095Y-87812259D02*
X147285714Y-87907497D01*
X147285714Y-87907497D02*
X147285714Y-88145592D01*
X147285714Y-88145592D02*
X147238095Y-88240830D01*
X147238095Y-88240830D02*
X147190476Y-88288450D01*
X147190476Y-88288450D02*
X147095238Y-88336069D01*
X147095238Y-88336069D02*
X146857143Y-88336069D01*
X146857143Y-88336069D02*
X146761905Y-88288450D01*
X146761905Y-88288450D02*
X146714286Y-88240830D01*
X153833333Y-96036069D02*
X153500000Y-95559878D01*
X153261905Y-96036069D02*
X153261905Y-95036069D01*
X153261905Y-95036069D02*
X153642857Y-95036069D01*
X153642857Y-95036069D02*
X153738095Y-95083688D01*
X153738095Y-95083688D02*
X153785714Y-95131307D01*
X153785714Y-95131307D02*
X153833333Y-95226545D01*
X153833333Y-95226545D02*
X153833333Y-95369402D01*
X153833333Y-95369402D02*
X153785714Y-95464640D01*
X153785714Y-95464640D02*
X153738095Y-95512259D01*
X153738095Y-95512259D02*
X153642857Y-95559878D01*
X153642857Y-95559878D02*
X153261905Y-95559878D01*
X154785714Y-96036069D02*
X154214286Y-96036069D01*
X154500000Y-96036069D02*
X154500000Y-95036069D01*
X154500000Y-95036069D02*
X154404762Y-95178926D01*
X154404762Y-95178926D02*
X154309524Y-95274164D01*
X154309524Y-95274164D02*
X154214286Y-95321783D01*
X154054819Y-115493154D02*
X154864342Y-115493154D01*
X154864342Y-115493154D02*
X154959580Y-115445535D01*
X154959580Y-115445535D02*
X155007200Y-115397916D01*
X155007200Y-115397916D02*
X155054819Y-115302678D01*
X155054819Y-115302678D02*
X155054819Y-115112202D01*
X155054819Y-115112202D02*
X155007200Y-115016964D01*
X155007200Y-115016964D02*
X154959580Y-114969345D01*
X154959580Y-114969345D02*
X154864342Y-114921726D01*
X154864342Y-114921726D02*
X154054819Y-114921726D01*
X154150057Y-114493154D02*
X154102438Y-114445535D01*
X154102438Y-114445535D02*
X154054819Y-114350297D01*
X154054819Y-114350297D02*
X154054819Y-114112202D01*
X154054819Y-114112202D02*
X154102438Y-114016964D01*
X154102438Y-114016964D02*
X154150057Y-113969345D01*
X154150057Y-113969345D02*
X154245295Y-113921726D01*
X154245295Y-113921726D02*
X154340533Y-113921726D01*
X154340533Y-113921726D02*
X154483390Y-113969345D01*
X154483390Y-113969345D02*
X155054819Y-114540773D01*
X155054819Y-114540773D02*
X155054819Y-113921726D01*
X157833333Y-96536069D02*
X157500000Y-96059878D01*
X157261905Y-96536069D02*
X157261905Y-95536069D01*
X157261905Y-95536069D02*
X157642857Y-95536069D01*
X157642857Y-95536069D02*
X157738095Y-95583688D01*
X157738095Y-95583688D02*
X157785714Y-95631307D01*
X157785714Y-95631307D02*
X157833333Y-95726545D01*
X157833333Y-95726545D02*
X157833333Y-95869402D01*
X157833333Y-95869402D02*
X157785714Y-95964640D01*
X157785714Y-95964640D02*
X157738095Y-96012259D01*
X157738095Y-96012259D02*
X157642857Y-96059878D01*
X157642857Y-96059878D02*
X157261905Y-96059878D01*
X158166667Y-95536069D02*
X158785714Y-95536069D01*
X158785714Y-95536069D02*
X158452381Y-95917021D01*
X158452381Y-95917021D02*
X158595238Y-95917021D01*
X158595238Y-95917021D02*
X158690476Y-95964640D01*
X158690476Y-95964640D02*
X158738095Y-96012259D01*
X158738095Y-96012259D02*
X158785714Y-96107497D01*
X158785714Y-96107497D02*
X158785714Y-96345592D01*
X158785714Y-96345592D02*
X158738095Y-96440830D01*
X158738095Y-96440830D02*
X158690476Y-96488450D01*
X158690476Y-96488450D02*
X158595238Y-96536069D01*
X158595238Y-96536069D02*
X158309524Y-96536069D01*
X158309524Y-96536069D02*
X158214286Y-96488450D01*
X158214286Y-96488450D02*
X158166667Y-96440830D01*
D11*
X139142580Y-92921726D02*
X138142580Y-93255059D01*
X138142580Y-93255059D02*
X139142580Y-93588392D01*
X138237819Y-94493154D02*
X138190200Y-94445535D01*
X138190200Y-94445535D02*
X138142580Y-94302678D01*
X138142580Y-94302678D02*
X138142580Y-94207440D01*
X138142580Y-94207440D02*
X138190200Y-94064583D01*
X138190200Y-94064583D02*
X138285438Y-93969345D01*
X138285438Y-93969345D02*
X138380676Y-93921726D01*
X138380676Y-93921726D02*
X138571152Y-93874107D01*
X138571152Y-93874107D02*
X138714009Y-93874107D01*
X138714009Y-93874107D02*
X138904485Y-93921726D01*
X138904485Y-93921726D02*
X138999723Y-93969345D01*
X138999723Y-93969345D02*
X139094961Y-94064583D01*
X139094961Y-94064583D02*
X139142580Y-94207440D01*
X139142580Y-94207440D02*
X139142580Y-94302678D01*
X139142580Y-94302678D02*
X139094961Y-94445535D01*
X139094961Y-94445535D02*
X139047342Y-94493154D01*
X138237819Y-95493154D02*
X138190200Y-95445535D01*
X138190200Y-95445535D02*
X138142580Y-95302678D01*
X138142580Y-95302678D02*
X138142580Y-95207440D01*
X138142580Y-95207440D02*
X138190200Y-95064583D01*
X138190200Y-95064583D02*
X138285438Y-94969345D01*
X138285438Y-94969345D02*
X138380676Y-94921726D01*
X138380676Y-94921726D02*
X138571152Y-94874107D01*
X138571152Y-94874107D02*
X138714009Y-94874107D01*
X138714009Y-94874107D02*
X138904485Y-94921726D01*
X138904485Y-94921726D02*
X138999723Y-94969345D01*
X138999723Y-94969345D02*
X139094961Y-95064583D01*
X139094961Y-95064583D02*
X139142580Y-95207440D01*
X139142580Y-95207440D02*
X139142580Y-95302678D01*
X139142580Y-95302678D02*
X139094961Y-95445535D01*
X139094961Y-95445535D02*
X139047342Y-95493154D01*
X138142580Y-96445535D02*
X138142580Y-95874107D01*
X138142580Y-96159821D02*
X139142580Y-96159821D01*
X139142580Y-96159821D02*
X138999723Y-96064583D01*
X138999723Y-96064583D02*
X138904485Y-95969345D01*
X138904485Y-95969345D02*
X138856866Y-95874107D01*
D10*
X157833333Y-111336069D02*
X157500000Y-110859878D01*
X157261905Y-111336069D02*
X157261905Y-110336069D01*
X157261905Y-110336069D02*
X157642857Y-110336069D01*
X157642857Y-110336069D02*
X157738095Y-110383688D01*
X157738095Y-110383688D02*
X157785714Y-110431307D01*
X157785714Y-110431307D02*
X157833333Y-110526545D01*
X157833333Y-110526545D02*
X157833333Y-110669402D01*
X157833333Y-110669402D02*
X157785714Y-110764640D01*
X157785714Y-110764640D02*
X157738095Y-110812259D01*
X157738095Y-110812259D02*
X157642857Y-110859878D01*
X157642857Y-110859878D02*
X157261905Y-110859878D01*
X158214286Y-110431307D02*
X158261905Y-110383688D01*
X158261905Y-110383688D02*
X158357143Y-110336069D01*
X158357143Y-110336069D02*
X158595238Y-110336069D01*
X158595238Y-110336069D02*
X158690476Y-110383688D01*
X158690476Y-110383688D02*
X158738095Y-110431307D01*
X158738095Y-110431307D02*
X158785714Y-110526545D01*
X158785714Y-110526545D02*
X158785714Y-110621783D01*
X158785714Y-110621783D02*
X158738095Y-110764640D01*
X158738095Y-110764640D02*
X158166667Y-111336069D01*
X158166667Y-111336069D02*
X158785714Y-111336069D01*
D12*
%TO.C,Q1*%
X144880000Y-88961250D02*
X144880000Y-93602250D01*
X144880000Y-88961250D02*
X155120000Y-88961250D01*
X144880000Y-90471250D02*
X155120000Y-90471250D01*
X144880000Y-93602250D02*
X155120000Y-93602250D01*
X148150000Y-88961250D02*
X148150000Y-90471250D01*
X151851000Y-88961250D02*
X151851000Y-90471250D01*
X155120000Y-88961250D02*
X155120000Y-93602250D01*
%TO.C,U1*%
X144860000Y-98601250D02*
X144860000Y-108881250D01*
X144860000Y-108881250D02*
X150160000Y-108881250D01*
X146510000Y-98601250D02*
X144860000Y-98601250D01*
X150160000Y-98601250D02*
X148510000Y-98601250D01*
X150160000Y-108881250D02*
X150160000Y-98601250D01*
X148510000Y-98601250D02*
G75*
G02*
X146510000Y-98601250I-1000000J0D01*
G01*
%TO.C,R6*%
X139265000Y-108504186D02*
X139265000Y-108958314D01*
X140735000Y-108504186D02*
X140735000Y-108958314D01*
%TO.C,R4*%
X143272936Y-94996250D02*
X143727064Y-94996250D01*
X143272936Y-96466250D02*
X143727064Y-96466250D01*
%TO.C,U3*%
X154440000Y-103731250D02*
X154440000Y-101781250D01*
X154440000Y-103731250D02*
X154440000Y-105681250D01*
X159560000Y-103731250D02*
X159560000Y-101781250D01*
X159560000Y-103731250D02*
X159560000Y-105681250D01*
X154535000Y-106431250D02*
X154205000Y-106671250D01*
X154205000Y-106191250D01*
X154535000Y-106431250D01*
G36*
X154535000Y-106431250D02*
G01*
X154205000Y-106671250D01*
X154205000Y-106191250D01*
X154535000Y-106431250D01*
G37*
%TO.C,U4*%
X144860000Y-112781250D02*
X144860000Y-123061250D01*
X144860000Y-123061250D02*
X150160000Y-123061250D01*
X146510000Y-112781250D02*
X144860000Y-112781250D01*
X150160000Y-112781250D02*
X148510000Y-112781250D01*
X150160000Y-123061250D02*
X150160000Y-112781250D01*
X148510000Y-112781250D02*
G75*
G02*
X146510000Y-112781250I-1000000J0D01*
G01*
%TO.C,LED_LINE1*%
D11*
X148000000Y-80631250D02*
X157000000Y-80631250D01*
X157000000Y-83631250D01*
X148000000Y-83631250D01*
X148000000Y-80631250D01*
%TO.C,VCC2*%
X153000000Y-121631250D02*
X162000000Y-121631250D01*
X162000000Y-124631250D01*
X153000000Y-124631250D01*
X153000000Y-121631250D01*
D12*
%TO.C,R5*%
X146727064Y-85496250D02*
X146272936Y-85496250D01*
X146727064Y-86966250D02*
X146272936Y-86966250D01*
%TO.C,R1*%
X153772936Y-96496250D02*
X154227064Y-96496250D01*
X153772936Y-97966250D02*
X154227064Y-97966250D01*
%TO.C,U2*%
X155440000Y-114731250D02*
X155440000Y-113931250D01*
X155440000Y-114731250D02*
X155440000Y-115531250D01*
X158560000Y-114731250D02*
X158560000Y-113931250D01*
X158560000Y-114731250D02*
X158560000Y-115531250D01*
X155490000Y-116031250D02*
X155160000Y-116271250D01*
X155160000Y-115791250D01*
X155490000Y-116031250D01*
G36*
X155490000Y-116031250D02*
G01*
X155160000Y-116271250D01*
X155160000Y-115791250D01*
X155490000Y-116031250D01*
G37*
%TO.C,R3*%
X157772936Y-96996250D02*
X158227064Y-96996250D01*
X157772936Y-98466250D02*
X158227064Y-98466250D01*
%TO.C,VCC1*%
D11*
X141100000Y-90231250D02*
X138100000Y-90231250D01*
X138100000Y-99231250D01*
X141100000Y-99231250D01*
X141100000Y-90231250D01*
D12*
%TO.C,R2*%
X158227064Y-108496250D02*
X157772936Y-108496250D01*
X158227064Y-109966250D02*
X157772936Y-109966250D01*
%TD*%
M02*
