%TF.GenerationSoftware,KiCad,Pcbnew,8.0.9*%
%TF.CreationDate,2025-03-06T03:58:24+03:00*%
%TF.ProjectId,dmx_led_controller,646d785f-6c65-4645-9f63-6f6e74726f6c,rev?*%
%TF.SameCoordinates,Original*%
%TF.FileFunction,Copper,L1,Top*%
%TF.FilePolarity,Positive*%
%FSLAX46Y46*%
G04 Gerber Fmt 4.6, Leading zero omitted, Abs format (unit mm)*
G04 Created by KiCad (PCBNEW 8.0.9) date 2025-03-06 03:58:24*
%MOMM*%
%LPD*%
G01*
G04 APERTURE LIST*
G04 Aperture macros list*
%AMRoundRect*
0 Rectangle with rounded corners*
0 $1 Rounding radius*
0 $2 $3 $4 $5 $6 $7 $8 $9 X,Y pos of 4 corners*
0 Add a 4 corners polygon primitive as box body*
4,1,4,$2,$3,$4,$5,$6,$7,$8,$9,$2,$3,0*
0 Add four circle primitives for the rounded corners*
1,1,$1+$1,$2,$3*
1,1,$1+$1,$4,$5*
1,1,$1+$1,$6,$7*
1,1,$1+$1,$8,$9*
0 Add four rect primitives between the rounded corners*
20,1,$1+$1,$2,$3,$4,$5,0*
20,1,$1+$1,$4,$5,$6,$7,0*
20,1,$1+$1,$6,$7,$8,$9,0*
20,1,$1+$1,$8,$9,$2,$3,0*%
G04 Aperture macros list end*
%TA.AperFunction,ComponentPad*%
%ADD10R,1.905000X2.000000*%
%TD*%
%TA.AperFunction,ComponentPad*%
%ADD11O,1.905000X2.000000*%
%TD*%
%TA.AperFunction,ComponentPad*%
%ADD12R,1.600000X1.600000*%
%TD*%
%TA.AperFunction,ComponentPad*%
%ADD13O,1.600000X1.600000*%
%TD*%
%TA.AperFunction,SMDPad,CuDef*%
%ADD14RoundRect,0.250000X-0.450000X0.262500X-0.450000X-0.262500X0.450000X-0.262500X0.450000X0.262500X0*%
%TD*%
%TA.AperFunction,SMDPad,CuDef*%
%ADD15RoundRect,0.250000X-0.262500X-0.450000X0.262500X-0.450000X0.262500X0.450000X-0.262500X0.450000X0*%
%TD*%
%TA.AperFunction,SMDPad,CuDef*%
%ADD16RoundRect,0.150000X0.150000X-0.825000X0.150000X0.825000X-0.150000X0.825000X-0.150000X-0.825000X0*%
%TD*%
%TA.AperFunction,ComponentPad*%
%ADD17C,1.524000*%
%TD*%
%TA.AperFunction,SMDPad,CuDef*%
%ADD18RoundRect,0.250000X0.262500X0.450000X-0.262500X0.450000X-0.262500X-0.450000X0.262500X-0.450000X0*%
%TD*%
%TA.AperFunction,SMDPad,CuDef*%
%ADD19RoundRect,0.150000X0.150000X-0.512500X0.150000X0.512500X-0.150000X0.512500X-0.150000X-0.512500X0*%
%TD*%
%TA.AperFunction,ViaPad*%
%ADD20C,0.600000*%
%TD*%
%TA.AperFunction,Conductor*%
%ADD21C,0.200000*%
%TD*%
%TA.AperFunction,Conductor*%
%ADD22C,0.300000*%
%TD*%
G04 APERTURE END LIST*
D10*
%TO.P,Q1,1,G*%
%TO.N,Net-(Q1-G)*%
X147460000Y-92231250D03*
D11*
%TO.P,Q1,2,D*%
%TO.N,Net-(Q1-D)*%
X150000000Y-92231250D03*
%TO.P,Q1,3,S*%
%TO.N,Net-(Q1-S)*%
X152540000Y-92231250D03*
%TD*%
D12*
%TO.P,U1,1,~{RESET}/PB5*%
%TO.N,unconnected-(U1-~{RESET}{slash}PB5-Pad1)*%
X143700000Y-99931250D03*
D13*
%TO.P,U1,2,XTAL1/PB3*%
%TO.N,Net-(U1-XTAL1{slash}PB3)*%
X143700000Y-102471250D03*
%TO.P,U1,3,XTAL2/PB4*%
%TO.N,unconnected-(U1-XTAL2{slash}PB4-Pad3)*%
X143700000Y-105011250D03*
%TO.P,U1,4,GND*%
%TO.N,Net-(Q1-S)*%
X143700000Y-107551250D03*
%TO.P,U1,5,AREF/PB0*%
%TO.N,Net-(U1-AREF{slash}PB0)*%
X151320000Y-107551250D03*
%TO.P,U1,6,PB1*%
%TO.N,unconnected-(U1-PB1-Pad6)*%
X151320000Y-105011250D03*
%TO.P,U1,7,PB2*%
%TO.N,Net-(U1-PB2)*%
X151320000Y-102471250D03*
%TO.P,U1,8,VCC*%
%TO.N,Net-(U1-VCC)*%
X151320000Y-99931250D03*
%TD*%
D14*
%TO.P,R6,1*%
%TO.N,Net-(Q1-S)*%
X140000000Y-107818750D03*
%TO.P,R6,2*%
%TO.N,Net-(R4-Pad1)*%
X140000000Y-109643750D03*
%TD*%
D15*
%TO.P,R4,1*%
%TO.N,Net-(R4-Pad1)*%
X142587500Y-95731250D03*
%TO.P,R4,2*%
%TO.N,Net-(Q1-G)*%
X144412500Y-95731250D03*
%TD*%
D16*
%TO.P,U3,1,RO*%
%TO.N,Net-(U1-XTAL1{slash}PB3)*%
X155095000Y-106206250D03*
%TO.P,U3,2,~{RE}*%
%TO.N,Net-(Q1-S)*%
X156365000Y-106206250D03*
%TO.P,U3,3,DE*%
X157635000Y-106206250D03*
%TO.P,U3,4,DI*%
%TO.N,unconnected-(U3-DI-Pad4)*%
X158905000Y-106206250D03*
%TO.P,U3,5,GND*%
%TO.N,Net-(Q1-S)*%
X158905000Y-101256250D03*
%TO.P,U3,6,A*%
%TO.N,Net-(U3-A)*%
X157635000Y-101256250D03*
%TO.P,U3,7,B*%
%TO.N,Net-(U3-B)*%
X156365000Y-101256250D03*
%TO.P,U3,8,VCC*%
%TO.N,Net-(U1-VCC)*%
X155095000Y-101256250D03*
%TD*%
D12*
%TO.P,U4,1*%
%TO.N,Net-(R4-Pad1)*%
X143700000Y-114111250D03*
D13*
%TO.P,U4,2,-*%
%TO.N,Net-(Q1-S)*%
X143700000Y-116651250D03*
%TO.P,U4,3,+*%
%TO.N,Net-(U2-VOUT)*%
X143700000Y-119191250D03*
%TO.P,U4,4*%
%TO.N,N/C*%
X143700000Y-121731250D03*
%TO.P,U4,5*%
X151320000Y-121731250D03*
%TO.P,U4,6*%
X151320000Y-119191250D03*
%TO.P,U4,7*%
X151320000Y-116651250D03*
%TO.P,U4,8*%
X151320000Y-114111250D03*
%TD*%
D17*
%TO.P,LED_LINE1,1,1*%
%TO.N,Net-(Q1-D)*%
X150000000Y-82131250D03*
%TO.P,LED_LINE1,2,2*%
%TO.N,Net-(LED_LINE1-Pad2)*%
X155000000Y-82131250D03*
%TD*%
%TO.P,VCC2,1,1*%
%TO.N,Net-(Q1-S)*%
X155000000Y-123131250D03*
%TO.P,VCC2,2,2*%
%TO.N,Net-(LED_LINE1-Pad2)*%
X160000000Y-123131250D03*
%TD*%
D18*
%TO.P,R5,1*%
%TO.N,Net-(Q1-S)*%
X147412500Y-86231250D03*
%TO.P,R5,2*%
%TO.N,Net-(Q1-G)*%
X145587500Y-86231250D03*
%TD*%
D15*
%TO.P,R1,1*%
%TO.N,Net-(U1-VCC)*%
X153087500Y-97231250D03*
%TO.P,R1,2*%
%TO.N,Net-(U1-PB2)*%
X154912500Y-97231250D03*
%TD*%
D19*
%TO.P,U2,1,VOUT*%
%TO.N,Net-(U2-VOUT)*%
X156050000Y-115868750D03*
%TO.P,U2,2,VSS*%
%TO.N,Net-(Q1-S)*%
X157000000Y-115868750D03*
%TO.P,U2,3,VDD*%
%TO.N,Net-(U1-VCC)*%
X157950000Y-115868750D03*
%TO.P,U2,4,SDA*%
%TO.N,Net-(U1-AREF{slash}PB0)*%
X157950000Y-113593750D03*
%TO.P,U2,5,SCL*%
%TO.N,Net-(U1-PB2)*%
X157000000Y-113593750D03*
%TO.P,U2,6,A0*%
%TO.N,Net-(Q1-S)*%
X156050000Y-113593750D03*
%TD*%
D15*
%TO.P,R3,1*%
%TO.N,Net-(U3-B)*%
X157087500Y-97731250D03*
%TO.P,R3,2*%
%TO.N,Net-(U3-A)*%
X158912500Y-97731250D03*
%TD*%
D17*
%TO.P,VCC1,1,1*%
%TO.N,Net-(Q1-S)*%
X139600000Y-92231250D03*
%TO.P,VCC1,2,2*%
%TO.N,Net-(U1-VCC)*%
X139600000Y-97231250D03*
%TD*%
D18*
%TO.P,R2,1*%
%TO.N,Net-(U1-VCC)*%
X158912500Y-109231250D03*
%TO.P,R2,2*%
%TO.N,Net-(U1-AREF{slash}PB0)*%
X157087500Y-109231250D03*
%TD*%
D20*
%TO.N,Net-(Q1-S)*%
X153500000Y-113731250D03*
X153500000Y-111731250D03*
%TD*%
D21*
%TO.N,Net-(Q1-G)*%
X147460000Y-92683750D02*
X147460000Y-92231250D01*
D22*
X145587500Y-86231250D02*
X145587500Y-90358750D01*
D21*
X144412500Y-95731250D02*
X147460000Y-92683750D01*
D22*
X145587500Y-90358750D02*
X147460000Y-92231250D01*
%TO.N,Net-(Q1-S)*%
X147412500Y-87103750D02*
X152540000Y-92231250D01*
D21*
X157635000Y-106206250D02*
X156365000Y-106206250D01*
D22*
X146500000Y-84231250D02*
X142000000Y-84231250D01*
D21*
X150000000Y-107315615D02*
X150000000Y-108231250D01*
X151555635Y-106231250D02*
X151084365Y-106231250D01*
X155000000Y-123131250D02*
X157000000Y-121131250D01*
X144800000Y-108651250D02*
X144800000Y-115551250D01*
X150000000Y-108231250D02*
X153500000Y-111731250D01*
X158905000Y-102231249D02*
X157635000Y-103501249D01*
X157000000Y-115231250D02*
X156050000Y-114281250D01*
X157635000Y-103501249D02*
X157635000Y-106206250D01*
X156365000Y-106206250D02*
X156365000Y-107181249D01*
X156365000Y-107181249D02*
X155814999Y-107731250D01*
X151084365Y-106231250D02*
X150000000Y-107315615D01*
X158905000Y-101256250D02*
X158905000Y-102231249D01*
D22*
X147412500Y-86231250D02*
X147412500Y-85143750D01*
D21*
X156050000Y-114281250D02*
X156050000Y-113593750D01*
X144800000Y-115551250D02*
X143700000Y-116651250D01*
X153500000Y-115551250D02*
X153500000Y-113731250D01*
X155814999Y-107731250D02*
X153055635Y-107731250D01*
D22*
X139600000Y-86631250D02*
X139600000Y-92231250D01*
D21*
X140000000Y-107818750D02*
X143432500Y-107818750D01*
X154092500Y-115551250D02*
X153500000Y-115551250D01*
X156050000Y-113593750D02*
X156050000Y-113281250D01*
X143700000Y-107551250D02*
X144800000Y-108651250D01*
X157000000Y-115868750D02*
X157000000Y-115231250D01*
X153055635Y-107731250D02*
X151555635Y-106231250D01*
X143432500Y-107818750D02*
X143700000Y-107551250D01*
X157000000Y-121131250D02*
X157000000Y-115868750D01*
D22*
X142000000Y-84231250D02*
X139600000Y-86631250D01*
X147412500Y-86231250D02*
X147412500Y-87103750D01*
D21*
X156050000Y-113593750D02*
X154092500Y-115551250D01*
D22*
X147412500Y-85143750D02*
X146500000Y-84231250D01*
D21*
X153500000Y-115551250D02*
X144800000Y-115551250D01*
%TO.N,Net-(U1-PB2)*%
X154912500Y-97231250D02*
X153912500Y-96231250D01*
X142000000Y-106231250D02*
X145000000Y-106231250D01*
X157000000Y-112931251D02*
X157000000Y-113593750D01*
X141860000Y-101371250D02*
X141500000Y-101731250D01*
X141500000Y-101731250D02*
X141500000Y-105731250D01*
X156699999Y-112631250D02*
X157000000Y-112931251D01*
X150220000Y-101371250D02*
X141860000Y-101371250D01*
X151320000Y-102471250D02*
X150220000Y-101371250D01*
X141500000Y-105731250D02*
X142000000Y-106231250D01*
X152500000Y-96231250D02*
X150220000Y-98511250D01*
X153912500Y-96231250D02*
X152500000Y-96231250D01*
X150220000Y-98511250D02*
X150220000Y-101371250D01*
X145000000Y-106231250D02*
X151400000Y-112631250D01*
X151400000Y-112631250D02*
X156699999Y-112631250D01*
%TO.N,Net-(U1-VCC)*%
X156500000Y-95731250D02*
X156000000Y-96231250D01*
X153087500Y-98163750D02*
X151320000Y-99931250D01*
X160500000Y-96231250D02*
X160000000Y-95731250D01*
X156000000Y-98731250D02*
X155095000Y-99636250D01*
X157950000Y-115868750D02*
X158812500Y-116731250D01*
X153087500Y-97231250D02*
X153087500Y-98163750D01*
X160000000Y-95731250D02*
X156500000Y-95731250D01*
X155095000Y-99636250D02*
X155095000Y-101256250D01*
X158812500Y-116731250D02*
X160500000Y-116731250D01*
X160500000Y-116731250D02*
X160500000Y-96231250D01*
X156000000Y-96231250D02*
X156000000Y-98731250D01*
X158912500Y-114906250D02*
X158912500Y-109231250D01*
X153770000Y-99931250D02*
X151320000Y-99931250D01*
X157950000Y-115868750D02*
X158912500Y-114906250D01*
X155095000Y-101256250D02*
X153770000Y-99931250D01*
%TO.N,Net-(U1-AREF{slash}PB0)*%
X157950000Y-113593750D02*
X157950000Y-110093750D01*
X153000000Y-109231250D02*
X151320000Y-107551250D01*
X157087500Y-109231250D02*
X153000000Y-109231250D01*
X157950000Y-110093750D02*
X157087500Y-109231250D01*
%TO.N,Net-(U3-A)*%
X157635000Y-99008750D02*
X158912500Y-97731250D01*
X157635000Y-101256250D02*
X157635000Y-99008750D01*
%TO.N,Net-(U3-B)*%
X157087500Y-97731250D02*
X157087500Y-98431250D01*
X157087500Y-98431250D02*
X156365000Y-99153750D01*
X156365000Y-99153750D02*
X156365000Y-101256250D01*
%TO.N,Net-(R4-Pad1)*%
X140000000Y-110411250D02*
X143700000Y-114111250D01*
X142587500Y-95731250D02*
X142587500Y-99143750D01*
X141500000Y-100231250D02*
X138500000Y-100231250D01*
X140000000Y-109643750D02*
X140000000Y-110411250D01*
X142587500Y-99143750D02*
X141500000Y-100231250D01*
X138500000Y-108143750D02*
X140000000Y-109643750D01*
X138500000Y-100231250D02*
X138500000Y-108143750D01*
%TO.N,Net-(U1-XTAL1{slash}PB3)*%
X144960000Y-103731250D02*
X143700000Y-102471250D01*
X155095000Y-106206250D02*
X152620000Y-103731250D01*
X152620000Y-103731250D02*
X144960000Y-103731250D01*
%TO.N,Net-(U2-VOUT)*%
X144800000Y-118091250D02*
X143700000Y-119191250D01*
X156050000Y-115868750D02*
X153827500Y-118091250D01*
X153827500Y-118091250D02*
X144800000Y-118091250D01*
%TD*%
M02*
