%TF.GenerationSoftware,KiCad,Pcbnew,8.0.9*%
%TF.CreationDate,2025-03-06T03:58:24+03:00*%
%TF.ProjectId,dmx_led_controller,646d785f-6c65-4645-9f63-6f6e74726f6c,rev?*%
%TF.SameCoordinates,Original*%
%TF.FileFunction,Copper,L2,Bot*%
%TF.FilePolarity,Positive*%
%FSLAX46Y46*%
G04 Gerber Fmt 4.6, Leading zero omitted, Abs format (unit mm)*
G04 Created by KiCad (PCBNEW 8.0.9) date 2025-03-06 03:58:24*
%MOMM*%
%LPD*%
G01*
G04 APERTURE LIST*
%TA.AperFunction,Conductor*%
%ADD10C,0.200000*%
%TD*%
%TA.AperFunction,ComponentPad*%
%ADD11R,1.905000X2.000000*%
%TD*%
%TA.AperFunction,ComponentPad*%
%ADD12O,1.905000X2.000000*%
%TD*%
%TA.AperFunction,ComponentPad*%
%ADD13R,1.600000X1.600000*%
%TD*%
%TA.AperFunction,ComponentPad*%
%ADD14O,1.600000X1.600000*%
%TD*%
%TA.AperFunction,ComponentPad*%
%ADD15C,1.524000*%
%TD*%
%TA.AperFunction,ViaPad*%
%ADD16C,0.600000*%
%TD*%
%TA.AperFunction,Conductor*%
%ADD17C,1.200000*%
%TD*%
%TA.AperFunction,Conductor*%
%ADD18C,0.400000*%
%TD*%
G04 APERTURE END LIST*
%TO.N,Net-(LED_LINE1-Pad2)*%
D10*
X137500000Y-80231250D02*
X163000000Y-80231250D01*
X163000000Y-125231250D01*
X137500000Y-125231250D01*
X137500000Y-80231250D01*
%TD*%
D11*
%TO.P,Q1,1,G*%
%TO.N,Net-(Q1-G)*%
X147460000Y-92231250D03*
D12*
%TO.P,Q1,2,D*%
%TO.N,Net-(Q1-D)*%
X150000000Y-92231250D03*
%TO.P,Q1,3,S*%
%TO.N,Net-(Q1-S)*%
X152540000Y-92231250D03*
%TD*%
D13*
%TO.P,U1,1,~{RESET}/PB5*%
%TO.N,unconnected-(U1-~{RESET}{slash}PB5-Pad1)*%
X143700000Y-99931250D03*
D14*
%TO.P,U1,2,XTAL1/PB3*%
%TO.N,Net-(U1-XTAL1{slash}PB3)*%
X143700000Y-102471250D03*
%TO.P,U1,3,XTAL2/PB4*%
%TO.N,unconnected-(U1-XTAL2{slash}PB4-Pad3)*%
X143700000Y-105011250D03*
%TO.P,U1,4,GND*%
%TO.N,Net-(Q1-S)*%
X143700000Y-107551250D03*
%TO.P,U1,5,AREF/PB0*%
%TO.N,Net-(U1-AREF{slash}PB0)*%
X151320000Y-107551250D03*
%TO.P,U1,6,PB1*%
%TO.N,unconnected-(U1-PB1-Pad6)*%
X151320000Y-105011250D03*
%TO.P,U1,7,PB2*%
%TO.N,Net-(U1-PB2)*%
X151320000Y-102471250D03*
%TO.P,U1,8,VCC*%
%TO.N,Net-(U1-VCC)*%
X151320000Y-99931250D03*
%TD*%
D13*
%TO.P,U4,1*%
%TO.N,Net-(R4-Pad1)*%
X143700000Y-114111250D03*
D14*
%TO.P,U4,2,-*%
%TO.N,Net-(Q1-S)*%
X143700000Y-116651250D03*
%TO.P,U4,3,+*%
%TO.N,Net-(U2-VOUT)*%
X143700000Y-119191250D03*
%TO.P,U4,4*%
%TO.N,N/C*%
X143700000Y-121731250D03*
%TO.P,U4,5*%
X151320000Y-121731250D03*
%TO.P,U4,6*%
X151320000Y-119191250D03*
%TO.P,U4,7*%
X151320000Y-116651250D03*
%TO.P,U4,8*%
X151320000Y-114111250D03*
%TD*%
D15*
%TO.P,LED_LINE1,1,1*%
%TO.N,Net-(Q1-D)*%
X150000000Y-82131250D03*
%TO.P,LED_LINE1,2,2*%
%TO.N,Net-(LED_LINE1-Pad2)*%
X155000000Y-82131250D03*
%TD*%
%TO.P,VCC2,1,1*%
%TO.N,Net-(Q1-S)*%
X155000000Y-123131250D03*
%TO.P,VCC2,2,2*%
%TO.N,Net-(LED_LINE1-Pad2)*%
X160000000Y-123131250D03*
%TD*%
%TO.P,VCC1,1,1*%
%TO.N,Net-(Q1-S)*%
X139600000Y-92231250D03*
%TO.P,VCC1,2,2*%
%TO.N,Net-(U1-VCC)*%
X139600000Y-97231250D03*
%TD*%
D16*
%TO.N,Net-(Q1-S)*%
X153500000Y-113731250D03*
X153500000Y-111731250D03*
%TD*%
D17*
%TO.N,Net-(Q1-D)*%
X150000000Y-82131250D02*
X150000000Y-92231250D01*
%TO.N,Net-(LED_LINE1-Pad2)*%
X162000000Y-83231250D02*
X160900000Y-82131250D01*
X160000000Y-123131250D02*
X161600000Y-123131250D01*
X161600000Y-123131250D02*
X162000000Y-122731250D01*
X162000000Y-122731250D02*
X162000000Y-83231250D01*
X160900000Y-82131250D02*
X155000000Y-82131250D01*
%TO.N,Net-(Q1-S)*%
X155000000Y-123131250D02*
X155000000Y-94691250D01*
X155000000Y-94691250D02*
X152540000Y-92231250D01*
D10*
X153500000Y-113731250D02*
X153500000Y-111731250D01*
D18*
%TO.N,Net-(U1-VCC)*%
X151320000Y-99931250D02*
X151320000Y-98551250D01*
X151320000Y-98551250D02*
X150000000Y-97231250D01*
X150000000Y-97231250D02*
X139600000Y-97231250D01*
%TD*%
M02*
