M48
; DRILL file {KiCad 8.0.9} date 2025-03-06T04:02:02+0300
; FORMAT={-:-/ absolute / metric / decimal}
; #@! TF.CreationDate,2025-03-06T04:02:02+03:00
; #@! TF.GenerationSoftware,Kicad,Pcbnew,8.0.9
; #@! TF.FileFunction,Plated,1,2,PTH
FMAT,2
METRIC
; #@! TA.AperFunction,Plated,PTH,ViaDrill
T1C0.300
; #@! TA.AperFunction,Plated,PTH,ComponentDrill
T2C0.762
; #@! TA.AperFunction,Plated,PTH,ComponentDrill
T3C0.800
; #@! TA.AperFunction,Plated,PTH,ComponentDrill
T4C1.100
%
G90
G05
T1
X153.5Y-111.731
X153.5Y-113.731
T2
X139.6Y-92.231
X139.6Y-97.231
X150.0Y-82.131
X155.0Y-82.131
X155.0Y-123.131
X160.0Y-123.131
T3
X143.7Y-99.931
X143.7Y-102.471
X143.7Y-105.011
X143.7Y-107.551
X143.7Y-114.111
X143.7Y-116.651
X143.7Y-119.191
X143.7Y-121.731
X151.32Y-99.931
X151.32Y-102.471
X151.32Y-105.011
X151.32Y-107.551
X151.32Y-114.111
X151.32Y-116.651
X151.32Y-119.191
X151.32Y-121.731
T4
X147.46Y-92.231
X150.0Y-92.231
X152.54Y-92.231
M30
